<svg xmlns="http://www.w3.org/2000/svg" xmlns:xlink="http://www.w3.org/1999/xlink" width="200" zoomAndPan="magnify" viewBox="0 0 150 37.5" height="50" preserveAspectRatio="xMidYMid meet" version="1.0"><defs><g/><clipPath id="id1"><path d="M 9 19 L 27 19 L 27 34.726562 L 9 34.726562 Z M 9 19 " clip-rule="nonzero"/></clipPath></defs><path fill="#363f4d" d="M 21.414062 1.195312 L 20.988281 3.886719 L 18.886719 3.601562 L 19.3125 0.910156 C 19.394531 0.371094 19.929688 0 20.503906 0.078125 C 20.511719 0.078125 20.519531 0.078125 20.523438 0.078125 C 21.101562 0.160156 21.496094 0.660156 21.414062 1.195312 " fill-opacity="1" fill-rule="nonzero"/><path fill="#455fb5" d="M 15.710938 6.269531 C 16.53125 5.378906 17.300781 4.714844 17.917969 4.238281 C 9.4375 3.785156 2.101562 8.125 1.042969 14.488281 C 1.039062 14.496094 1.039062 14.503906 1.035156 14.515625 C 1.035156 14.519531 1.035156 14.523438 1.035156 14.527344 C 1.03125 14.542969 1.027344 14.558594 1.027344 14.574219 L 1.03125 14.574219 C 0.992188 15.035156 1.339844 15.453125 1.839844 15.523438 C 2.335938 15.589844 2.800781 15.285156 2.90625 14.832031 C 3.65625 14.804688 4.398438 14.84375 5.132812 14.945312 C 6.664062 15.15625 8.148438 15.636719 9.5 16.371094 L 10.222656 16.761719 C 11.59375 11.53125 13.960938 8.171875 15.710938 6.269531 " fill-opacity="1" fill-rule="nonzero"/><path fill="#455fb5" d="M 21.722656 4.757812 C 22.167969 5.382812 22.699219 6.226562 23.210938 7.300781 C 24.300781 9.589844 25.53125 13.445312 25.238281 18.824219 L 25.421875 18.78125 C 27.867188 18.226562 30.421875 18.28125 32.835938 18.941406 C 32.761719 19.425781 33.121094 19.878906 33.640625 19.949219 C 33.652344 19.953125 33.667969 19.953125 33.679688 19.957031 C 34.195312 20.007812 34.652344 19.644531 34.722656 19.167969 C 35.707031 12.769531 30.003906 6.609375 21.722656 4.757812 " fill-opacity="1" fill-rule="nonzero"/><path fill="#363f4d" d="M 19.648438 5.597656 C 19.066406 6.015625 18.238281 6.691406 17.332031 7.683594 C 15.777344 9.386719 13.675781 12.398438 12.414062 17.105469 C 14.214844 17.039062 16.019531 17.132812 17.796875 17.378906 C 19.574219 17.621094 21.328125 18.015625 23.035156 18.5625 C 23.390625 11.394531 20.878906 7.203125 19.648438 5.597656 " fill-opacity="1" fill-rule="nonzero"/><g clip-path="url(#id1)"><path fill="#455fb5" d="M 24.921875 25.460938 C 24.796875 26.585938 24.25 27.722656 23.382812 28.667969 C 22.113281 30.042969 18.988281 32.242188 17.929688 32.96875 C 16.871094 32.242188 13.746094 30.046875 12.480469 28.667969 C 12.09375 28.246094 11.769531 27.785156 11.519531 27.308594 L 12.394531 27.308594 C 12.394531 27.308594 12.394531 27.304688 12.394531 27.304688 L 13.023438 25.710938 C 13.023438 25.710938 13.027344 25.710938 13.027344 25.710938 L 14.753906 29.621094 C 14.835938 29.808594 15.128906 29.800781 15.199219 29.605469 L 16 27.308594 C 16 27.308594 16.003906 27.308594 16.003906 27.308594 L 17.714844 27.308594 C 17.71875 27.308594 17.71875 27.304688 17.71875 27.304688 L 18.59375 25.171875 C 18.59375 25.171875 18.597656 25.171875 18.597656 25.171875 L 20.15625 29.722656 C 20.226562 29.933594 20.546875 29.925781 20.609375 29.710938 L 21.300781 27.308594 C 21.300781 27.308594 21.304688 27.308594 21.304688 27.308594 L 22.703125 27.308594 C 22.949219 27.308594 23.148438 27.113281 23.132812 26.878906 C 23.121094 26.660156 22.917969 26.496094 22.6875 26.496094 L 20.640625 26.496094 C 20.640625 26.496094 20.636719 26.496094 20.636719 26.5 L 20.332031 27.566406 C 20.332031 27.570312 20.328125 27.570312 20.328125 27.566406 L 18.875 23.328125 C 18.804688 23.128906 18.507812 23.121094 18.425781 23.316406 L 17.121094 26.496094 L 15.375 26.496094 C 15.375 26.496094 15.375 26.496094 15.371094 26.5 L 14.90625 27.832031 C 14.90625 27.835938 14.902344 27.835938 14.902344 27.832031 L 13.210938 24.007812 C 13.128906 23.820312 12.84375 23.824219 12.769531 24.015625 L 11.792969 26.496094 C 11.792969 26.496094 11.792969 26.496094 11.789062 26.496094 L 11.171875 26.496094 C 11.058594 26.15625 10.980469 25.808594 10.941406 25.460938 C 10.804688 24.238281 11.175781 23.109375 12.015625 22.195312 C 12.75 21.390625 13.71875 20.949219 14.734375 20.949219 C 15.328125 20.949219 15.898438 21.105469 16.433594 21.410156 L 16.445312 21.417969 C 16.605469 21.503906 16.929688 21.753906 17.410156 22.152344 L 17.929688 22.585938 L 18.453125 22.152344 C 18.933594 21.75 19.253906 21.503906 19.414062 21.417969 L 19.429688 21.410156 C 19.960938 21.105469 20.53125 20.949219 21.128906 20.949219 C 22.144531 20.949219 23.109375 21.390625 23.847656 22.195312 C 24.6875 23.109375 25.058594 24.238281 24.921875 25.460938 Z M 24.996094 21.273438 C 23.964844 20.152344 22.59375 19.535156 21.128906 19.535156 C 20.25 19.535156 19.414062 19.757812 18.640625 20.203125 C 18.441406 20.3125 18.191406 20.496094 17.929688 20.699219 C 17.671875 20.496094 17.417969 20.3125 17.21875 20.203125 C 16.445312 19.757812 15.609375 19.535156 14.734375 19.535156 C 13.265625 19.535156 11.894531 20.152344 10.867188 21.273438 C 9.75 22.488281 9.253906 23.988281 9.433594 25.609375 C 9.589844 27.015625 10.265625 28.429688 11.332031 29.589844 C 12.910156 31.304688 16.902344 34.023438 17.40625 34.363281 L 17.929688 34.730469 L 18.457031 34.363281 L 18.453125 34.363281 C 18.957031 34.023438 22.949219 31.304688 24.527344 29.589844 C 25.597656 28.429688 26.269531 27.015625 26.425781 25.609375 C 26.609375 23.988281 26.113281 22.488281 24.996094 21.273438 " fill-opacity="1" fill-rule="nonzero"/></g><g fill="#455fb5" fill-opacity="1"><g transform="translate(33.556212, 17.513987)"><g><path d="M 8.6875 0 L 8.03125 -1.96875 L 3.828125 -1.96875 L 3.1875 0 L 0.15625 0 L 4.21875 -11.734375 L 7.6875 -11.734375 L 11.734375 0 Z M 4.546875 -4.140625 L 7.3125 -4.140625 L 5.9375 -8.296875 Z M 4.546875 -4.140625 "/></g></g></g><g fill="#455fb5" fill-opacity="1"><g transform="translate(45.440749, 17.513987)"><g><path d="M 5.21875 -9.625 C 4.863281 -9.625 4.570312 -9.523438 4.34375 -9.328125 C 4.113281 -9.140625 4 -8.867188 4 -8.515625 C 4 -8.160156 4.101562 -7.875 4.3125 -7.65625 C 4.53125 -7.4375 4.804688 -7.269531 5.140625 -7.15625 C 5.484375 -7.039062 5.863281 -6.929688 6.28125 -6.828125 C 6.695312 -6.722656 7.109375 -6.59375 7.515625 -6.4375 C 7.929688 -6.289062 8.304688 -6.101562 8.640625 -5.875 C 8.984375 -5.65625 9.257812 -5.34375 9.46875 -4.9375 C 9.675781 -4.53125 9.78125 -4.046875 9.78125 -3.484375 C 9.78125 -2.492188 9.378906 -1.644531 8.578125 -0.9375 C 7.773438 -0.238281 6.710938 0.109375 5.390625 0.109375 C 4.078125 0.109375 3.015625 -0.203125 2.203125 -0.828125 C 1.398438 -1.460938 1 -2.363281 1 -3.53125 L 4.03125 -3.53125 C 4.113281 -2.601562 4.59375 -2.140625 5.46875 -2.140625 C 5.875 -2.140625 6.191406 -2.242188 6.421875 -2.453125 C 6.660156 -2.671875 6.78125 -2.945312 6.78125 -3.28125 C 6.78125 -3.613281 6.675781 -3.882812 6.46875 -4.09375 C 6.257812 -4.3125 5.984375 -4.476562 5.640625 -4.59375 C 5.304688 -4.71875 4.929688 -4.832031 4.515625 -4.9375 C 4.097656 -5.050781 3.679688 -5.179688 3.265625 -5.328125 C 2.859375 -5.484375 2.484375 -5.671875 2.140625 -5.890625 C 1.804688 -6.109375 1.53125 -6.421875 1.3125 -6.828125 C 1.101562 -7.234375 1 -7.710938 1 -8.265625 C 1 -9.359375 1.40625 -10.234375 2.21875 -10.890625 C 3.03125 -11.546875 4.066406 -11.875 5.328125 -11.875 C 6.585938 -11.875 7.601562 -11.585938 8.375 -11.015625 C 9.15625 -10.441406 9.566406 -9.535156 9.609375 -8.296875 L 6.5 -8.296875 C 6.457031 -8.722656 6.320312 -9.050781 6.09375 -9.28125 C 5.863281 -9.507812 5.570312 -9.625 5.21875 -9.625 Z M 5.21875 -9.625 "/></g></g></g><g fill="#455fb5" fill-opacity="1"><g transform="translate(56.225172, 17.513987)"><g><path d="M 5.21875 -9.625 C 4.863281 -9.625 4.570312 -9.523438 4.34375 -9.328125 C 4.113281 -9.140625 4 -8.867188 4 -8.515625 C 4 -8.160156 4.101562 -7.875 4.3125 -7.65625 C 4.53125 -7.4375 4.804688 -7.269531 5.140625 -7.15625 C 5.484375 -7.039062 5.863281 -6.929688 6.28125 -6.828125 C 6.695312 -6.722656 7.109375 -6.59375 7.515625 -6.4375 C 7.929688 -6.289062 8.304688 -6.101562 8.640625 -5.875 C 8.984375 -5.65625 9.257812 -5.34375 9.46875 -4.9375 C 9.675781 -4.53125 9.78125 -4.046875 9.78125 -3.484375 C 9.78125 -2.492188 9.378906 -1.644531 8.578125 -0.9375 C 7.773438 -0.238281 6.710938 0.109375 5.390625 0.109375 C 4.078125 0.109375 3.015625 -0.203125 2.203125 -0.828125 C 1.398438 -1.460938 1 -2.363281 1 -3.53125 L 4.03125 -3.53125 C 4.113281 -2.601562 4.59375 -2.140625 5.46875 -2.140625 C 5.875 -2.140625 6.191406 -2.242188 6.421875 -2.453125 C 6.660156 -2.671875 6.78125 -2.945312 6.78125 -3.28125 C 6.78125 -3.613281 6.675781 -3.882812 6.46875 -4.09375 C 6.257812 -4.3125 5.984375 -4.476562 5.640625 -4.59375 C 5.304688 -4.71875 4.929688 -4.832031 4.515625 -4.9375 C 4.097656 -5.050781 3.679688 -5.179688 3.265625 -5.328125 C 2.859375 -5.484375 2.484375 -5.671875 2.140625 -5.890625 C 1.804688 -6.109375 1.53125 -6.421875 1.3125 -6.828125 C 1.101562 -7.234375 1 -7.710938 1 -8.265625 C 1 -9.359375 1.40625 -10.234375 2.21875 -10.890625 C 3.03125 -11.546875 4.066406 -11.875 5.328125 -11.875 C 6.585938 -11.875 7.601562 -11.585938 8.375 -11.015625 C 9.15625 -10.441406 9.566406 -9.535156 9.609375 -8.296875 L 6.5 -8.296875 C 6.457031 -8.722656 6.320312 -9.050781 6.09375 -9.28125 C 5.863281 -9.507812 5.570312 -9.625 5.21875 -9.625 Z M 5.21875 -9.625 "/></g></g></g><g fill="#455fb5" fill-opacity="1"><g transform="translate(67.009595, 17.513987)"><g><path d="M 1.203125 -4.71875 L 1.203125 -11.703125 L 4.046875 -11.703125 L 4.046875 -4.71875 C 4.046875 -4.019531 4.21875 -3.476562 4.5625 -3.09375 C 4.90625 -2.71875 5.410156 -2.53125 6.078125 -2.53125 C 6.742188 -2.53125 7.253906 -2.71875 7.609375 -3.09375 C 7.972656 -3.476562 8.15625 -4.019531 8.15625 -4.71875 L 8.15625 -11.703125 L 11 -11.703125 L 11 -4.71875 C 11 -3.6875 10.753906 -2.796875 10.265625 -2.046875 C 9.785156 -1.296875 9.175781 -0.75 8.4375 -0.40625 C 7.695312 -0.0625 6.894531 0.109375 6.03125 0.109375 C 4.675781 0.109375 3.53125 -0.3125 2.59375 -1.15625 C 1.664062 -2 1.203125 -3.1875 1.203125 -4.71875 Z M 1.203125 -4.71875 "/></g></g></g><g fill="#455fb5" fill-opacity="1"><g transform="translate(79.194162, 17.513987)"><g><path d="M 4.09375 -4.546875 L 4.09375 0 L 1.25 0 L 1.25 -11.703125 L 5.875 -11.703125 C 7.226562 -11.703125 8.28125 -11.351562 9.03125 -10.65625 C 9.789062 -9.957031 10.171875 -9.113281 10.171875 -8.125 C 10.171875 -7.445312 9.960938 -6.785156 9.546875 -6.140625 C 9.140625 -5.492188 8.46875 -5.035156 7.53125 -4.765625 L 10.40625 0 L 7.0625 0 L 4.4375 -4.546875 Z M 4.09375 -9.53125 L 4.09375 -6.71875 L 5.875 -6.71875 C 6.300781 -6.71875 6.640625 -6.84375 6.890625 -7.09375 C 7.140625 -7.351562 7.265625 -7.691406 7.265625 -8.109375 C 7.265625 -8.523438 7.132812 -8.863281 6.875 -9.125 C 6.625 -9.394531 6.289062 -9.53125 5.875 -9.53125 Z M 4.09375 -9.53125 "/></g></g></g><g fill="#455fb5" fill-opacity="1"><g transform="translate(90.328624, 17.513987)"><g><path d="M 8.6875 0 L 8.03125 -1.96875 L 3.828125 -1.96875 L 3.1875 0 L 0.15625 0 L 4.21875 -11.734375 L 7.6875 -11.734375 L 11.734375 0 Z M 4.546875 -4.140625 L 7.3125 -4.140625 L 5.9375 -8.296875 Z M 4.546875 -4.140625 "/></g></g></g><g fill="#455fb5" fill-opacity="1"><g transform="translate(102.213161, 17.513987)"><g><path d="M 8.875 -11.734375 L 11.71875 -11.734375 L 11.71875 0 L 8.875 0 L 4.09375 -7.390625 L 4.09375 0 L 1.25 0 L 1.25 -11.734375 L 4.09375 -11.734375 L 8.875 -4.34375 Z M 8.875 -11.734375 "/></g></g></g><g fill="#455fb5" fill-opacity="1"><g transform="translate(115.181137, 17.513987)"><g><path d="M 2.296875 -1.59375 C 1.140625 -2.71875 0.5625 -4.144531 0.5625 -5.875 C 0.5625 -7.613281 1.140625 -9.046875 2.296875 -10.171875 C 3.460938 -11.304688 4.882812 -11.875 6.5625 -11.875 C 7.863281 -11.875 9.019531 -11.523438 10.03125 -10.828125 C 11.039062 -10.140625 11.75 -9.1875 12.15625 -7.96875 L 8.75 -7.96875 C 8.300781 -8.820312 7.585938 -9.25 6.609375 -9.25 C 5.640625 -9.25 4.875 -8.941406 4.3125 -8.328125 C 3.75 -7.722656 3.46875 -6.90625 3.46875 -5.875 C 3.46875 -4.851562 3.75 -4.035156 4.3125 -3.421875 C 4.875 -2.816406 5.640625 -2.515625 6.609375 -2.515625 C 7.585938 -2.515625 8.300781 -2.941406 8.75 -3.796875 L 12.15625 -3.796875 C 11.75 -2.578125 11.039062 -1.625 10.03125 -0.9375 C 9.019531 -0.25 7.863281 0.09375 6.5625 0.09375 C 4.882812 0.09375 3.460938 -0.46875 2.296875 -1.59375 Z M 2.296875 -1.59375 "/></g></g></g><g fill="#455fb5" fill-opacity="1"><g transform="translate(127.915763, 17.513987)"><g><path d="M 8.34375 -11.734375 L 8.34375 -9.5625 L 4.09375 -9.5625 L 4.09375 -7.046875 L 7.828125 -7.046875 L 7.828125 -4.890625 L 4.09375 -4.890625 L 4.09375 -2.171875 L 8.34375 -2.171875 L 8.34375 0 L 1.25 0 L 1.25 -11.734375 Z M 8.34375 -11.734375 "/></g></g></g><g fill="#455fb5" fill-opacity="1"><g transform="translate(137.450061, 17.513987)"><g><path d="M 5.21875 -9.625 C 4.863281 -9.625 4.570312 -9.523438 4.34375 -9.328125 C 4.113281 -9.140625 4 -8.867188 4 -8.515625 C 4 -8.160156 4.101562 -7.875 4.3125 -7.65625 C 4.53125 -7.4375 4.804688 -7.269531 5.140625 -7.15625 C 5.484375 -7.039062 5.863281 -6.929688 6.28125 -6.828125 C 6.695312 -6.722656 7.109375 -6.59375 7.515625 -6.4375 C 7.929688 -6.289062 8.304688 -6.101562 8.640625 -5.875 C 8.984375 -5.65625 9.257812 -5.34375 9.46875 -4.9375 C 9.675781 -4.53125 9.78125 -4.046875 9.78125 -3.484375 C 9.78125 -2.492188 9.378906 -1.644531 8.578125 -0.9375 C 7.773438 -0.238281 6.710938 0.109375 5.390625 0.109375 C 4.078125 0.109375 3.015625 -0.203125 2.203125 -0.828125 C 1.398438 -1.460938 1 -2.363281 1 -3.53125 L 4.03125 -3.53125 C 4.113281 -2.601562 4.59375 -2.140625 5.46875 -2.140625 C 5.875 -2.140625 6.191406 -2.242188 6.421875 -2.453125 C 6.660156 -2.671875 6.78125 -2.945312 6.78125 -3.28125 C 6.78125 -3.613281 6.675781 -3.882812 6.46875 -4.09375 C 6.257812 -4.3125 5.984375 -4.476562 5.640625 -4.59375 C 5.304688 -4.71875 4.929688 -4.832031 4.515625 -4.9375 C 4.097656 -5.050781 3.679688 -5.179688 3.265625 -5.328125 C 2.859375 -5.484375 2.484375 -5.671875 2.140625 -5.890625 C 1.804688 -6.109375 1.53125 -6.421875 1.3125 -6.828125 C 1.101562 -7.234375 1 -7.710938 1 -8.265625 C 1 -9.359375 1.40625 -10.234375 2.21875 -10.890625 C 3.03125 -11.546875 4.066406 -11.875 5.328125 -11.875 C 6.585938 -11.875 7.601562 -11.585938 8.375 -11.015625 C 9.15625 -10.441406 9.566406 -9.535156 9.609375 -8.296875 L 6.5 -8.296875 C 6.457031 -8.722656 6.320312 -9.050781 6.09375 -9.28125 C 5.863281 -9.507812 5.570312 -9.625 5.21875 -9.625 Z M 5.21875 -9.625 "/></g></g></g><g fill="#455fb5" fill-opacity="1"><g transform="translate(33.556212, 33.835049)"><g><path d="M 8.625 -11.703125 L 11.46875 -11.703125 L 11.46875 0 L 8.625 0 L 8.625 -4.84375 L 4.09375 -4.84375 L 4.09375 0 L 1.25 0 L 1.25 -11.703125 L 4.09375 -11.703125 L 4.09375 -7.015625 L 8.625 -7.015625 Z M 8.625 -11.703125 "/></g></g></g><g fill="#455fb5" fill-opacity="1"><g transform="translate(51.991396, 33.835049)"><g><path d="M 8.34375 -11.734375 L 8.34375 -9.5625 L 4.09375 -9.5625 L 4.09375 -7.046875 L 7.828125 -7.046875 L 7.828125 -4.890625 L 4.09375 -4.890625 L 4.09375 -2.171875 L 8.34375 -2.171875 L 8.34375 0 L 1.25 0 L 1.25 -11.734375 Z M 8.34375 -11.734375 "/></g></g></g><g fill="#455fb5" fill-opacity="1"><g transform="translate(67.242927, 33.835049)"><g><path d="M 8.875 -11.734375 L 11.71875 -11.734375 L 11.71875 0 L 8.875 0 L 4.09375 -7.390625 L 4.09375 0 L 1.25 0 L 1.25 -11.734375 L 4.09375 -11.734375 L 8.875 -4.34375 Z M 8.875 -11.734375 "/></g></g></g><g fill="#455fb5" fill-opacity="1"><g transform="translate(85.928135, 33.835049)"><g><path d="M 8.875 -11.734375 L 11.71875 -11.734375 L 11.71875 0 L 8.875 0 L 4.09375 -7.390625 L 4.09375 0 L 1.25 0 L 1.25 -11.734375 L 4.09375 -11.734375 L 8.875 -4.34375 Z M 8.875 -11.734375 "/></g></g></g><g fill="#455fb5" fill-opacity="1"><g transform="translate(104.613346, 33.835049)"><g><path d="M 8.6875 0 L 8.03125 -1.96875 L 3.828125 -1.96875 L 3.1875 0 L 0.15625 0 L 4.21875 -11.734375 L 7.6875 -11.734375 L 11.734375 0 Z M 4.546875 -4.140625 L 7.3125 -4.140625 L 5.9375 -8.296875 Z M 4.546875 -4.140625 "/></g></g></g><g fill="#455fb5" fill-opacity="1"><g transform="translate(122.215118, 33.835049)"><g><path d="M 8.875 -11.734375 L 11.71875 -11.734375 L 11.71875 0 L 8.875 0 L 4.09375 -7.390625 L 4.09375 0 L 1.25 0 L 1.25 -11.734375 L 4.09375 -11.734375 L 8.875 -4.34375 Z M 8.875 -11.734375 "/></g></g></g><g fill="#455fb5" fill-opacity="1"><g transform="translate(140.90033, 33.835049)"><g><path d="M 1.25 0 L 1.25 -11.703125 L 4.09375 -11.703125 L 4.09375 0 Z M 1.25 0 "/></g></g></g></svg>