<svg xmlns="http://www.w3.org/2000/svg" xmlns:xlink="http://www.w3.org/1999/xlink" id="Calque_1" viewBox="0 0 250 250" style="enable-background:new 0 0 250 250;"><style>.st0{fill-rule:evenodd;clip-rule:evenodd;fill:#003781;} .st1{fill-rule:evenodd;clip-rule:evenodd;fill:#FFFFFF;} .st2{fill-rule:evenodd;clip-rule:evenodd;fill:#67CDFD;} .st3{fill-rule:evenodd;clip-rule:evenodd;fill:#FEFEFE;} .st4{fill:#FEFEFE;} .st5{fill:#67CDFD;}</style><circle class="st0" cx="126.5" cy="131.5" r="112.5"/><g><path class="st3" d="M126.34 119.39c10.96.0 22.14.23 33.1.0 8.87-.23 14.92 3.27 18.18 11.66.94 2.8 2.57 5.36 3.5 8.16 2.1 8.86 7.46 11.89 16.32 10.72 3.96-.47 9.32-1.86 9.56 5.6.0 6.29-2.56 7.92-8.16 7.69-5.12-.47-4.43 3.5-4.43 6.76-.23 13.99-.47 27.98.0 41.96.24 6.76-2.1 9.32-8.85 8.86-3.27-.46-6.53-.46-9.8.0-9.09.93-14.68-1.16-12.82-11.89.7-3.97-1.63-5.13-5.37-5.13-21.21.23-42.2.23-63.41.0-5.35.0-5.83 3.03-5.6 7 .93 7.23-1.4 10.26-9.09 10.02-26.11-.7-21.67 3.03-22.14-21.68.0-9.79.0-19.58.23-29.61.0-4.19-.93-6.99-6.06-6.29-5.82.47-6.53-3.26-6.76-7.92.0-5.37 3.5-6.3 7.23-5.37 11.89 2.56 16.55-4.2 20.28-14.22 5.6-15.15 8.16-16.32 24.71-16.32C106.75 119.39 116.55 119.39 126.34 119.39z"/><path class="st0" d="M125.88 157.39c16.31.0 32.63-.23 49.18.0 6.76.0 9.57-1.63 5.83-8.62-2.8-5.6-5.13-11.43-7.46-17.25-2.79-6.53-7.46-9.33-14.68-9.09-16.56.23-33.35.0-49.89.0-31.48.23-24.71-3.5-37.77 25.41-.23.47-.47 1.16-.7 1.63-3.26 6.06-.7 7.93 5.36 7.93C92.53 157.39 109.09 157.39 125.88 157.39z"/><path class="st2" d="M71.31 164.62h26.35c1.17.0 2.33.93 2.33 2.1v7c0 .93-1.16 1.86-2.33 1.86H71.31c-1.16.0-2.1-.93-2.1-1.86v-7C69.22 165.55 70.15 164.62 71.31 164.62z"/><path class="st2" d="M155.25 164.62h26.34c1.4.0 2.33.93 2.33 2.1v7c0 .93-.93 1.86-2.33 1.86h-26.34c-1.17.0-2.1-.93-2.1-1.86v-7C153.15 165.55 154.08 164.62 155.25 164.62z"/></g><g><path class="st1" d="M27.26 97.22c1.2 3.3 6.29 5.09 12 4.5 1.5.0 3.3-.3 4.79-.9 7.2-2.1 43.49-14.69 43.79-14.99l.9-.3-.6-.3c-4.19-3.6-6.29-7.2-5.09-10.19 1.2-4.5 7.19-7.2 16.79-7.8 8.7-.9 19.8.0 32.39 2.4-1.2.0-3 0-4.49-.3-9.3.0-17.7.0-24.6.6-10.5.9-15.59 3-16.19 7.2-.3 2.7 1.19 4.79 4.8 6.3 3.89 2.1 11.98 3.3 20.09 4.5 5.4.9 10.5 1.5 14.09 2.7 12.61 3 25.5 6.6 40.79 5.4 2.4-.3 4.8-.6 6.9-1.2 11.7-1.8 22.79-4.5 34.79-8.09h1.5l-17.69-25.2c-3.01.6-6.31 1.2-9.3 1.5-4.21.3-8.1.3-12.01-.3-4.79-.9-16.79-3.3-28.49-5.7-12-2.7-23.39-4.79-27.89-5.4-2.41-.3-4.8-.3-7.2-.3-6.01.6-12 3.9-17.7 6.6-1.8 1.5-3.6 2.1-5.39 3.3L32.35 89.12C26.66 92.72 26.66 95.72 27.26 97.22z"/><path class="st2" d="M244.09 89.12H220.7c-.9.0-2.4-.9-3-1.8l-22.19-31.79c-.6-1.2-.6-2.1.6-2.1h23.39c.9.0 2.4.9 3 2.1l22.19 31.79C245.29 88.23 244.99 89.12 244.09 89.12z"/></g></svg>