<svg xmlns="http://www.w3.org/2000/svg" xmlns:xlink="http://www.w3.org/1999/xlink" width="500" zoomAndPan="magnify" viewBox="0 0 375 374.999991" height="500" preserveAspectRatio="xMidYMid meet" version="1.0"><defs><g/><clipPath id="id1"><path d="M 281 115.273438 L 375 115.273438 L 375 208.273438 L 281 208.273438 Z M 281 115.273438 " clip-rule="nonzero"/></clipPath></defs><path fill="#003781" d="M 33.429688 164.5 L 20.613281 164.5 L 27.441406 142.25 Z M 13.964844 189.015625 L 18.339844 174.367188 L 35.609375 174.367188 L 39.703125 188.980469 L 55.664062 188.980469 L 39.804688 133.265625 C 38.867188 129.972656 36.894531 128.453125 33.429688 128.453125 L 10.792969 128.453125 L 10.792969 133.714844 L 12.671875 133.714844 C 15.035156 133.714844 16.3125 134.652344 16.3125 136.445312 C 16.3125 137.636719 16.050781 138.628906 15.113281 141.339844 L -0.777344 189.015625 Z M 13.964844 189.015625 " fill-opacity="1" fill-rule="nonzero"/><path fill="#003781" d="M 74.136719 189.015625 L 74.136719 133.09375 C 74.136719 130.179688 72.425781 128.453125 69.601562 128.453125 L 55.5625 128.453125 L 55.5625 133.714844 L 56.5 133.714844 C 58.859375 133.714844 59.863281 134.71875 59.863281 137.101562 L 59.863281 189.015625 Z M 74.136719 189.015625 " fill-opacity="1" fill-rule="nonzero"/><path fill="#003781" d="M 98.398438 189.015625 L 98.398438 133.09375 C 98.398438 130.179688 96.660156 128.453125 93.855469 128.453125 L 79.863281 128.453125 L 79.863281 133.714844 L 80.800781 133.714844 C 83.167969 133.714844 84.171875 134.71875 84.171875 137.101562 L 84.171875 189.015625 Z M 98.398438 189.015625 " fill-opacity="1" fill-rule="nonzero"/><path fill="#003781" d="M 123.289062 133.976562 C 123.289062 129.914062 120.277344 127.410156 115.113281 127.410156 C 109.949219 127.410156 106.914062 129.867188 106.914062 133.976562 C 106.914062 138.085938 110.023438 140.542969 115.113281 140.542969 C 120.203125 140.542969 123.289062 138.105469 123.289062 133.976562 M 123.019531 189.015625 L 123.019531 148.253906 C 123.019531 145.34375 121.289062 143.628906 118.464844 143.628906 L 104.652344 143.628906 L 104.652344 148.789062 L 105.46875 148.789062 C 107.824219 148.789062 108.832031 149.875 108.832031 152.238281 L 108.832031 189.015625 Z M 123.019531 189.015625 " fill-opacity="1" fill-rule="nonzero"/><path fill="#003781" d="M 154.265625 167.21875 L 154.265625 176.046875 C 151.890625 178.492188 149 179.992188 146.550781 179.992188 C 144.097656 179.992188 143.09375 178.738281 143.09375 175.304688 C 143.09375 171.871094 143.808594 170.417969 146.359375 169.433594 C 148.914062 168.394531 151.546875 167.65625 154.265625 167.21875 M 135.074219 156.621094 C 139.488281 154.433594 144.152344 153.25 149.074219 153.074219 C 152.90625 153.074219 154.265625 154.433594 154.265625 158.402344 L 154.265625 159.414062 C 148.457031 160.351562 146.632812 160.710938 143.355469 161.429688 C 141.519531 161.835938 139.726562 162.394531 137.984375 163.109375 C 132.25 165.410156 129.535156 169.835938 129.535156 176.636719 C 129.535156 185.265625 133.289062 189.429688 140.980469 189.429688 C 143.621094 189.441406 146.167969 188.960938 148.625 187.996094 C 150.84375 186.984375 152.875 185.683594 154.71875 184.09375 L 154.71875 184.730469 C 154.71875 187.542969 156.164062 188.980469 158.992188 188.980469 L 171.996094 188.980469 L 171.996094 184.128906 L 171.355469 184.128906 C 168.90625 184.128906 168.003906 183.03125 168.003906 180.132812 L 168.003906 158.515625 C 168.003906 146.988281 163.996094 142.972656 152.4375 142.972656 C 148.761719 142.992188 145.132812 143.417969 141.554688 144.257812 C 138.164062 145.011719 134.953125 146.226562 131.910156 147.894531 Z M 135.074219 156.621094 " fill-opacity="1" fill-rule="nonzero"/><path fill="#003781" d="M 192.699219 189.015625 L 192.699219 158.328125 C 195.074219 155.691406 197.515625 154.5 200.332031 154.5 C 203.347656 154.5 204.089844 155.691406 204.089844 160.257812 L 204.089844 189.015625 L 218.269531 189.015625 L 218.269531 158.15625 C 218.269531 150.972656 217.75 148.703125 215.449219 146.265625 C 213.574219 144.152344 210.632812 143.085938 206.886719 143.085938 C 201.339844 143.085938 197.433594 144.800781 192.183594 149.707031 L 192.183594 147.894531 C 192.183594 145.082031 190.707031 143.628906 187.808594 143.628906 L 174.332031 143.628906 L 174.332031 148.789062 L 175.148438 148.789062 C 177.507812 148.789062 178.519531 149.875 178.519531 152.238281 L 178.519531 189.015625 Z M 192.699219 189.015625 " fill-opacity="1" fill-rule="nonzero"/><path fill="#003781" d="M 260.324219 179.488281 L 240.539062 179.488281 L 259.460938 152.988281 L 259.460938 143.609375 L 229.789062 143.609375 C 226.425781 143.609375 224.878906 145.148438 224.878906 148.515625 L 224.878906 156.769531 L 230.144531 156.769531 L 230.144531 155.964844 C 230.144531 153.871094 231.234375 152.878906 233.496094 152.878906 L 243.695312 152.878906 L 224.578125 179.675781 L 224.578125 189.054688 L 260.257812 189.054688 Z M 260.324219 179.488281 " fill-opacity="1" fill-rule="nonzero"/><g clip-path="url(#id1)"><path fill="#003781" d="M 334.757812 187.863281 L 334.757812 136.546875 C 334.757812 132.457031 333.300781 131.078125 329.328125 131.078125 L 317.300781 131.078125 L 317.300781 136.847656 L 318.023438 136.847656 C 320.765625 136.847656 321.300781 137.464844 321.300781 140.769531 L 321.300781 187.863281 Z M 340.691406 187.863281 L 354.042969 187.863281 L 354.042969 147.894531 C 354.042969 143.882812 352.492188 142.4375 348.578125 142.4375 L 340.691406 142.4375 Z M 315.40625 187.863281 L 315.40625 142.476562 L 307.488281 142.476562 C 303.574219 142.476562 302.042969 143.917969 302.042969 147.933594 L 302.042969 187.863281 Z M 366.683594 161.777344 C 366.683594 184.394531 350.398438 200.835938 328.042969 200.835938 C 305.6875 200.835938 289.367188 184.394531 289.367188 161.777344 C 289.367188 139.164062 305.675781 122.722656 328.042969 122.722656 C 350.410156 122.722656 366.683594 139.257812 366.683594 161.777344 M 374.589844 161.777344 C 374.589844 135.1875 354.671875 115.273438 328.042969 115.273438 C 301.414062 115.273438 281.480469 135.1875 281.480469 161.777344 C 281.480469 188.371094 301.394531 208.273438 328.042969 208.273438 C 354.691406 208.273438 374.589844 188.4375 374.589844 161.777344 " fill-opacity="1" fill-rule="nonzero"/></g><g fill="#003781" fill-opacity="1"><g transform="translate(-2.338649, 260.131665)"><g><path d="M 11.359375 -49.632812 C 9.160156 -49.632812 7.03125 -49.351562 4.828125 -49.28125 C 4.046875 -49.28125 4.332031 -47.433594 4.332031 -46.863281 C 4.261719 -45.089844 4.472656 -43.316406 4.332031 -41.46875 C 4.191406 -39.621094 4.332031 -37.777344 4.332031 -33.65625 C 4.617188 -31.882812 4.261719 -30.179688 4.402344 -28.402344 C 4.6875 -25.632812 4.332031 -22.863281 4.402344 -20.023438 C 4.542969 -17.539062 4.402344 -15.054688 4.542969 -12.570312 C 4.542969 -11.714844 4.6875 -10.792969 4.542969 -9.941406 C 4.472656 -9.089844 4.472656 -8.238281 4.542969 -7.386719 C 4.757812 -5.398438 4.402344 -3.480469 4.472656 -1.5625 C 4.542969 -0.425781 4.332031 -0.0703125 5.253906 0.355469 C 5.398438 0.285156 5.824219 0.214844 5.964844 0.214844 C 11.789062 0.140625 17.679688 -0.214844 23.574219 -0.0703125 C 24 -0.0703125 24.070312 -0.566406 24.144531 -0.710938 C 23.644531 -7.3125 23.859375 -13.777344 24 -20.238281 C 24.496094 -20.449219 34.652344 -20.519531 35.007812 -20.378906 C 35.007812 -19.882812 34.9375 -19.3125 35.007812 -18.746094 C 35.289062 -16.542969 35.21875 -14.414062 35.148438 -12.140625 C 35.078125 -10.507812 34.9375 -8.804688 35.007812 -7.171875 C 35.078125 -5.113281 34.792969 -3.054688 35.007812 -1.066406 C 35.148438 -0.285156 35.433594 0.214844 36.144531 0 C 37.277344 -0.214844 38.484375 -0.0703125 39.621094 0 C 41.609375 0 43.597656 -0.214844 45.515625 0 C 47.21875 0.214844 48.925781 -0.140625 50.628906 -0.0703125 C 51.765625 0 52.902344 -0.0703125 54.109375 -0.140625 C 54.179688 -0.496094 54.464844 -0.921875 54.390625 -1.207031 C 54.179688 -2.980469 54.179688 -4.6875 54.179688 -6.460938 C 54.25 -8.519531 54.179688 -10.582031 54.320312 -12.640625 C 54.390625 -15.550781 54.464844 -18.390625 54.464844 -21.300781 C 54.535156 -22.507812 54.179688 -23.644531 54.179688 -24.851562 C 54.25 -26.414062 54.390625 -28.046875 54.320312 -29.679688 C 54.109375 -32.949219 54.464844 -36.144531 54.179688 -39.410156 C 53.964844 -41.539062 54.390625 -43.742188 54.25 -45.871094 C 54.179688 -46.9375 54.464844 -48 54.25 -49.066406 C 53.539062 -49.5625 52.757812 -49.707031 51.976562 -49.5625 C 50.769531 -49.351562 49.5625 -49.5625 48.285156 -49.492188 C 47.078125 -49.421875 45.800781 -49.5625 44.59375 -49.421875 C 43.171875 -49.28125 41.753906 -49.351562 40.402344 -49.136719 C 38.628906 -48.925781 36.925781 -49.632812 35.007812 -49.066406 C 34.792969 -42.179688 35.363281 -35.363281 34.863281 -28.472656 C 34.582031 -28.472656 34.296875 -28.546875 34.082031 -28.546875 C 32.804688 -28.402344 31.597656 -28.332031 30.390625 -28.261719 L 27.339844 -28.261719 C 26.132812 -28.117188 25.421875 -28.402344 24.214844 -28.261719 C 24.285156 -28.757812 24.285156 -29.183594 24.285156 -29.609375 C 24.214844 -31.597656 24.144531 -33.515625 24.144531 -35.503906 C 24.144531 -35.859375 24.070312 -36.285156 24.070312 -36.640625 C 24 -38.058594 23.714844 -39.480469 23.859375 -40.902344 C 24.070312 -42.960938 24.144531 -45.019531 24.070312 -47.078125 C 24 -47.859375 24.070312 -48.710938 23.574219 -49.351562 C 23.363281 -49.5625 23.078125 -49.492188 22.792969 -49.492188 L 17.324219 -49.492188 C 15.335938 -49.492188 13.347656 -49.632812 11.359375 -49.632812 Z M 11.359375 -49.632812 "/></g></g></g><g fill="#003781" fill-opacity="1"><g transform="translate(52.8997, 260.131665)"><g><path d="M 26.839844 -38.273438 C 23.929688 -38.558594 21.160156 -38.273438 18.25 -37.5625 C 15.90625 -36.996094 14.984375 -36.425781 13.207031 -35.574219 C 11.078125 -34.582031 9.445312 -33.160156 8.023438 -31.386719 C 5.46875 -28.191406 4.046875 -24.570312 3.410156 -20.664062 C 2.910156 -17.539062 3.265625 -14.414062 4.261719 -11.359375 C 5.324219 -8.308594 7.242188 -5.964844 9.65625 -4.117188 C 12 -2.34375 13.988281 -1.136719 16.828125 -0.285156 C 19.101562 0.425781 20.59375 0.425781 22.863281 0.78125 C 25.207031 1.207031 27.621094 1.066406 29.894531 0.78125 C 33.65625 0.496094 35.859375 -0.214844 39.195312 -1.988281 C 40.902344 -2.910156 42.675781 -4.472656 44.097656 -6.035156 C 42.816406 -8.664062 41.253906 -11.714844 40.757812 -11.359375 C 39.976562 -11.007812 39.339844 -10.082031 38.699219 -9.585938 C 36.285156 -7.953125 35.007812 -6.957031 32.023438 -6.675781 C 29.609375 -6.390625 27.265625 -6.53125 25.136719 -7.667969 C 22.4375 -9.019531 20.804688 -12.285156 21.230469 -15.195312 C 21.871094 -15.265625 22.582031 -15.480469 23.21875 -15.480469 C 26.699219 -15.265625 30.105469 -15.550781 33.585938 -15.335938 C 37.421875 -15.125 39.339844 -15.480469 43.171875 -15.480469 C 43.667969 -15.480469 44.523438 -15.265625 44.59375 -15.765625 C 44.664062 -15.976562 44.734375 -16.402344 44.734375 -16.617188 C 44.949219 -21.160156 44.664062 -24.710938 42.605469 -28.546875 C 42.035156 -29.539062 41.609375 -30.675781 40.757812 -31.527344 C 36.570312 -35.644531 32.734375 -37.707031 26.839844 -38.273438 Z M 27.765625 -29.679688 C 28.046875 -29.398438 28.261719 -29.113281 28.402344 -28.757812 C 29.042969 -26.558594 29.46875 -24.355469 28.828125 -21.871094 C 26.132812 -22.011719 23.644531 -21.585938 20.949219 -21.871094 C 21.089844 -24.355469 21.375 -26.769531 22.792969 -28.898438 C 23.929688 -30.675781 26.34375 -31.03125 27.765625 -29.679688 Z M 27.765625 -29.679688 "/></g></g></g><g fill="#003781" fill-opacity="1"><g transform="translate(97.274896, 260.131665)"><g><path d="M 39.265625 -37.632812 C 34.511719 -38.769531 30.105469 -37.707031 25.703125 -36.070312 C 23.644531 -35.289062 21.871094 -34.15625 20.023438 -32.875 C 18.746094 -33.941406 18.105469 -35.859375 17.183594 -37.066406 C 11.714844 -37.707031 8.59375 -37.136719 4.332031 -37.066406 C 4.191406 -24.78125 4.261719 -12.214844 4.6875 0 L 19.242188 0 C 20.167969 0 21.089844 0.0703125 21.871094 -0.640625 C 21.941406 -3.691406 21.65625 -6.605469 21.585938 -9.585938 C 21.445312 -14.203125 21.515625 -18.746094 21.515625 -23.363281 C 21.515625 -24.425781 21.726562 -25.492188 22.011719 -26.414062 C 23.644531 -27.621094 25.066406 -28.972656 26.910156 -29.679688 C 29.824219 -30.746094 32.949219 -28.898438 32.523438 -25.632812 C 32.523438 -23.433594 32.449219 -21.585938 32.59375 -19.527344 C 32.804688 -16.617188 32.734375 -13.632812 32.734375 -10.652344 C 32.734375 -7.953125 32.804688 -5.183594 32.804688 -2.414062 C 32.804688 -1.773438 32.664062 -0.992188 33.019531 -0.285156 C 33.65625 0.355469 34.296875 0.355469 35.078125 0.355469 C 36.851562 0.214844 38.34375 0.140625 40.121094 0.140625 C 43.171875 0.0703125 46.226562 0.0703125 49.28125 0 C 49.632812 0 49.917969 0 50.203125 -0.355469 C 50.058594 -5.824219 50.058594 -11.359375 49.847656 -16.898438 C 49.707031 -20.238281 49.917969 -23.574219 49.707031 -26.910156 C 49.421875 -31.527344 46.863281 -34.511719 43.03125 -36.640625 C 41.824219 -37.277344 40.546875 -37.351562 39.265625 -37.632812 Z M 39.265625 -37.632812 "/></g></g></g><g fill="#003781" fill-opacity="1"><g transform="translate(148.253181, 260.131665)"><g><path d="M 39.265625 -37.632812 C 34.511719 -38.769531 30.105469 -37.707031 25.703125 -36.070312 C 23.644531 -35.289062 21.871094 -34.15625 20.023438 -32.875 C 18.746094 -33.941406 18.105469 -35.859375 17.183594 -37.066406 C 11.714844 -37.707031 8.59375 -37.136719 4.332031 -37.066406 C 4.191406 -24.78125 4.261719 -12.214844 4.6875 0 L 19.242188 0 C 20.167969 0 21.089844 0.0703125 21.871094 -0.640625 C 21.941406 -3.691406 21.65625 -6.605469 21.585938 -9.585938 C 21.445312 -14.203125 21.515625 -18.746094 21.515625 -23.363281 C 21.515625 -24.425781 21.726562 -25.492188 22.011719 -26.414062 C 23.644531 -27.621094 25.066406 -28.972656 26.910156 -29.679688 C 29.824219 -30.746094 32.949219 -28.898438 32.523438 -25.632812 C 32.523438 -23.433594 32.449219 -21.585938 32.59375 -19.527344 C 32.804688 -16.617188 32.734375 -13.632812 32.734375 -10.652344 C 32.734375 -7.953125 32.804688 -5.183594 32.804688 -2.414062 C 32.804688 -1.773438 32.664062 -0.992188 33.019531 -0.285156 C 33.65625 0.355469 34.296875 0.355469 35.078125 0.355469 C 36.851562 0.214844 38.34375 0.140625 40.121094 0.140625 C 43.171875 0.0703125 46.226562 0.0703125 49.28125 0 C 49.632812 0 49.917969 0 50.203125 -0.355469 C 50.058594 -5.824219 50.058594 -11.359375 49.847656 -16.898438 C 49.707031 -20.238281 49.917969 -23.574219 49.707031 -26.910156 C 49.421875 -31.527344 46.863281 -34.511719 43.03125 -36.640625 C 41.824219 -37.277344 40.546875 -37.351562 39.265625 -37.632812 Z M 39.265625 -37.632812 "/></g></g></g><g fill="#003781" fill-opacity="1"><g transform="translate(199.231465, 260.131665)"><g><path d="M 28.972656 -38.132812 C 25.917969 -38.203125 22.863281 -38.132812 19.8125 -37.917969 C 15.765625 -37.5625 11.859375 -36.570312 8.09375 -35.078125 C 7.386719 -34.792969 6.53125 -34.582031 6.105469 -33.515625 C 7.386719 -31.3125 9.089844 -27.621094 9.871094 -27.125 C 10.082031 -26.910156 11.289062 -27.691406 12 -28.046875 C 13.917969 -29.113281 15.195312 -29.253906 17.183594 -29.753906 C 19.953125 -30.460938 22.4375 -30.886719 25.277344 -29.894531 C 27.691406 -29.042969 29.113281 -27.195312 28.828125 -24.570312 C 28.332031 -24.425781 27.480469 -24.640625 26.984375 -24.570312 C 25.703125 -24.496094 24.496094 -24.710938 23.21875 -24.710938 C 19.738281 -24.851562 16.261719 -24.425781 12.921875 -23.503906 C 9.585938 -22.582031 6.886719 -20.804688 5.113281 -17.824219 C 3.265625 -14.628906 2.769531 -11.289062 3.550781 -7.738281 C 4.402344 -3.976562 6.816406 -1.492188 10.296875 0 C 13.421875 1.277344 16.757812 1.207031 20.09375 0.78125 C 23.574219 0.285156 26.769531 -0.921875 29.539062 -3.265625 C 29.824219 -3.480469 30.035156 -3.761719 30.460938 -3.761719 C 32.023438 -2.980469 32.734375 -1.277344 34.082031 0.0703125 C 37.847656 0.0703125 41.609375 -0.355469 45.304688 0 C 45.730469 -0.566406 45.730469 -0.992188 45.65625 -1.492188 C 45.375 -4.402344 45.445312 -7.597656 45.515625 -10.507812 C 45.585938 -14.984375 45.515625 -19.457031 45.445312 -23.929688 C 45.375 -26.414062 44.664062 -28.757812 43.101562 -30.816406 C 42.320312 -31.8125 41.398438 -32.664062 40.402344 -33.445312 C 37.136719 -36.214844 33.375 -37.988281 28.972656 -38.132812 Z M 29.113281 -17.75 C 29.113281 -14.699219 28.898438 -11.859375 29.183594 -9.089844 C 28.402344 -8.09375 27.480469 -7.386719 26.414062 -6.957031 C 24.070312 -5.894531 20.875 -7.597656 20.519531 -10.226562 C 20.09375 -13.917969 21.515625 -16.617188 25.703125 -17.539062 C 26.769531 -17.75 27.90625 -17.75 29.113281 -17.75 Z M 29.113281 -17.75 "/></g></g></g><g fill="#003781" fill-opacity="1"><g transform="translate(245.665685, 260.131665)"><g><path d="M 39.265625 -37.632812 C 34.511719 -38.769531 30.105469 -37.707031 25.703125 -36.070312 C 23.644531 -35.289062 21.871094 -34.15625 20.023438 -32.875 C 18.746094 -33.941406 18.105469 -35.859375 17.183594 -37.066406 C 11.714844 -37.707031 8.59375 -37.136719 4.332031 -37.066406 C 4.191406 -24.78125 4.261719 -12.214844 4.6875 0 L 19.242188 0 C 20.167969 0 21.089844 0.0703125 21.871094 -0.640625 C 21.941406 -3.691406 21.65625 -6.605469 21.585938 -9.585938 C 21.445312 -14.203125 21.515625 -18.746094 21.515625 -23.363281 C 21.515625 -24.425781 21.726562 -25.492188 22.011719 -26.414062 C 23.644531 -27.621094 25.066406 -28.972656 26.910156 -29.679688 C 29.824219 -30.746094 32.949219 -28.898438 32.523438 -25.632812 C 32.523438 -23.433594 32.449219 -21.585938 32.59375 -19.527344 C 32.804688 -16.617188 32.734375 -13.632812 32.734375 -10.652344 C 32.734375 -7.953125 32.804688 -5.183594 32.804688 -2.414062 C 32.804688 -1.773438 32.664062 -0.992188 33.019531 -0.285156 C 33.65625 0.355469 34.296875 0.355469 35.078125 0.355469 C 36.851562 0.214844 38.34375 0.140625 40.121094 0.140625 C 43.171875 0.0703125 46.226562 0.0703125 49.28125 0 C 49.632812 0 49.917969 0 50.203125 -0.355469 C 50.058594 -5.824219 50.058594 -11.359375 49.847656 -16.898438 C 49.707031 -20.238281 49.917969 -23.574219 49.707031 -26.910156 C 49.421875 -31.527344 46.863281 -34.511719 43.03125 -36.640625 C 41.824219 -37.277344 40.546875 -37.351562 39.265625 -37.632812 Z M 39.265625 -37.632812 "/></g></g></g><g fill="#003781" fill-opacity="1"><g transform="translate(296.643958, 260.131665)"><g><path d="M 9.65625 -51.835938 C 7.457031 -51.125 5.609375 -50.203125 4.757812 -47.859375 C 4.472656 -47.007812 4.261719 -46.15625 4.472656 -45.375 C 5.042969 -41.539062 7.738281 -40.046875 10.933594 -39.835938 C 12.070312 -39.835938 13.136719 -39.695312 14.203125 -39.765625 C 17.113281 -39.976562 19.597656 -40.972656 21.089844 -43.882812 C 21.726562 -45.160156 21.800781 -47.859375 20.59375 -49.207031 C 19.597656 -50.273438 18.460938 -51.195312 16.972656 -51.765625 C 14.484375 -52.757812 12.070312 -52.617188 9.65625 -51.835938 Z M 20.949219 -37.421875 C 15.550781 -37.277344 9.726562 -37.5625 4.828125 -37.207031 C 4.332031 -36.710938 4.261719 -36.285156 4.261719 -35.859375 C 4.332031 -34.792969 4.332031 -33.230469 4.402344 -32.238281 C 4.6875 -29.328125 4.542969 -26.839844 4.542969 -24 C 4.542969 -21.160156 4.261719 -18.320312 4.261719 -15.410156 C 4.332031 -11.574219 4.617188 -7.8125 4.542969 -3.976562 C 4.542969 -2.699219 4.402344 -1.492188 4.617188 -0.0703125 C 10.082031 0.0703125 15.550781 0.0703125 20.949219 -0.140625 C 21.585938 -0.78125 21.515625 -1.347656 21.445312 -1.917969 C 21.300781 -2.910156 21.230469 -3.835938 21.300781 -4.828125 C 21.300781 -8.308594 21.445312 -11.644531 21.445312 -15.054688 C 21.375 -18.53125 21.375 -22.011719 21.375 -25.492188 C 21.375 -28.546875 21.515625 -32.09375 21.515625 -35.148438 C 21.585938 -35.859375 21.515625 -36.640625 20.949219 -37.421875 Z M 20.949219 -37.421875 "/></g></g></g></svg>